<svg xmlns="http://www.w3.org/2000/svg" width="64" height="64" viewBox="0 0 64 64"><title>tree</title><path d="M61 48h-1V35c0-3.86-3.14-7-7-7H36v-8h1c1.65 0 3-1.35 3-3V7c0-1.65-1.35-3-3-3H27c-1.65 0-3 1.35-3 3v10c0 1.65 1.35 3 3 3h1v8H11c-3.86 0-7 3.14-7 7v13H3c-1.65 0-3 1.35-3 3v10c0 1.65 1.35 3 3 3h10c1.65 0 3-1.35 3-3V51c0-1.65-1.35-3-3-3h-1V36h16v12h-1c-1.65 0-3 1.35-3 3v10c0 1.65 1.35 3 3 3h10c1.65 0 3-1.35 3-3V51c0-1.65-1.35-3-3-3h-1V36h16v12h-1c-1.65 0-3 1.35-3 3v10c0 1.65 1.35 3 3 3h10c1.65 0 3-1.35 3-3V51c0-1.65-1.35-3-3-3zM12 60H4v-8h8v8zm24 0h-8v-8h8v8zm-8-44V8h8v8h-8zm32 44h-8v-8h8v8z"/></svg>